<?xml version="1.0" encoding="utf-8"?>
<!-- Generator: Adobe Illustrator 16.0.0, SVG Export Plug-In . SVG Version: 6.00 Build 0)  -->
<!DOCTYPE svg PUBLIC "-//W3C//DTD SVG 1.1//EN" "http://www.w3.org/Graphics/SVG/1.1/DTD/svg11.dtd">
<svg version="1.1" id="Layer_1" xmlns="http://www.w3.org/2000/svg" xmlns:xlink="http://www.w3.org/1999/xlink" x="0px" y="0px"
	 width="60px" height="60px" viewBox="482 482 60 60" enable-background="new 482 482 60 60" xml:space="preserve">
<g>
	<path fill="#FFFFFF" d="M506.439,502.4c-3.363-0.132-6.171,4.124-6.39,9.689c-0.218,5.565,2.246,10.03,5.61,10.162
		c3.363,0.133,6.17-4.124,6.39-9.688C512.268,506.996,509.804,502.532,506.439,502.4z M510.416,512.498
		c-0.177,4.496-2.326,8.215-4.695,8.122c-2.368-0.094-4.218-3.97-4.042-8.466c0.177-4.496,2.328-8.215,4.695-8.123
		C508.743,504.125,510.593,508.002,510.416,512.498z"/>
	<path fill="#FFFFFF" d="M506.465,507.135c-1.609-0.063-2.905,1.959-3.013,4.705c-0.108,2.745,1.024,4.864,2.634,4.927
		c1.61,0.064,2.906-1.96,3.014-4.704C509.208,509.317,508.076,507.199,506.465,507.135z M508.573,511.495
		c0.043,1.425-0.579,3.514-0.851,3.394c-0.348-0.153,0.115-1.561,0.23-2.301c0.145-0.931-0.001-1.439-0.115-1.888
		c-0.078-0.306-0.227-0.747-0.318-1.036c-0.142-0.453-0.143-0.997-0.027-0.992C507.914,508.688,508.525,509.959,508.573,511.495z"/>
	<path fill="#FFFFFF" d="M506.203,500.282L506.203,500.282c-0.006-0.001-0.011-0.001-0.017-0.001c-0.002,0-0.004,0-0.008,0l0,0
		c-11.334-0.008-21.099,12.946-21.509,13.499l-0.385,0.531l0.434,0.503c0.345,0.381,8.239,8.992,19.832,9.447
		c0.501,0.021,1.009,0.024,1.523,0.014l0.053-0.004c5.442-0.485,8.1-6.211,8.321-11.668c0.167-4.139-1.067-7.961-3.305-10.223
		C509.735,500.96,508.026,500.234,506.203,500.282z M506.005,522.642c-10.07,0.221-17.672-6.542-19.597-8.434
		c1.976-2.444,10.527-12.316,19.791-12.294h0.026c1.374-0.04,2.67,0.519,3.755,1.616c1.925,1.945,2.983,5.313,2.834,9.008
		C512.623,517.273,510.444,522.229,506.005,522.642z"/>
	<path fill="#FFFFFF" d="M531.176,500.533c-0.251,0-0.505,0.017-0.754,0.051l-0.996,0.137l0.527,0.856
		c3.664,5.942,3.678,15.587,0.028,20.637l-0.6,0.827l1.001,0.198c0.43,0.086,0.86,0.129,1.277,0.129c0.002,0,0.002,0,0.002,0
		c2.393,0,4.535-1.438,6.037-4.049c1.282-2.229,2.017-5.153,2.017-8.021C539.716,505.766,535.565,500.533,531.176,500.533z
		 M536.563,518.668c-0.889,1.546-2.461,3.393-4.901,3.392l0,0c-0.006,0-0.011,0-0.015,0c3.2-5.377,3.197-14.098-0.021-20.193
		c3.487,0.362,6.779,4.857,6.779,9.433C538.406,513.905,537.719,516.66,536.563,518.668z"/>
	<rect x="516.144" y="511.213" fill="#FFFFFF" width="3.766" height="1.476"/>
	<rect x="521.627" y="511.213" fill="#FFFFFF" width="3.765" height="1.476"/>
	<rect x="527.11" y="511.213" fill="#FFFFFF" width="3.765" height="1.476"/>
</g>
</svg>
