<?xml version="1.0" encoding="utf-8"?>
<!-- Generator: Adobe Illustrator 16.0.0, SVG Export Plug-In . SVG Version: 6.00 Build 0)  -->
<!DOCTYPE svg PUBLIC "-//W3C//DTD SVG 1.1//EN" "http://www.w3.org/Graphics/SVG/1.1/DTD/svg11.dtd">
<svg version="1.1" id="Layer_1" xmlns="http://www.w3.org/2000/svg" xmlns:xlink="http://www.w3.org/1999/xlink" x="0px" y="0px"
	 width="60px" height="60px" viewBox="0 0 60 60" enable-background="new 0 0 60 60" xml:space="preserve">
<path fill="#FFFFFF" d="M12.479,24.098c0,1.564-1.268,2.833-2.833,2.833s-2.833-1.269-2.833-2.833s1.269-2.833,2.833-2.833
	S12.479,22.534,12.479,24.098"/>
<path fill="#FFFFFF" d="M28.604,17.286c0,1.564-1.268,2.833-2.833,2.833s-2.833-1.269-2.833-2.833s1.269-2.833,2.833-2.833
	S28.604,15.722,28.604,17.286"/>
<path fill="#FFFFFF" d="M22.418,43.271c1.171-6.931,2.297-12.644,1.479-19.591c-1.754,1.053-6.525,5.194-8.25,2.319
	c1.636-0.982,3.273-1.965,4.91-2.946c1.004-0.603,2.007-1.205,3.011-1.807c0.812-0.487,2.176,0.39,3.271,0.106
	c1.743-0.449,1.466-1.105,3.196-0.55c0.846,0.272,2.281,0.44,3.004,0.965c1.244,0.399,2.337,3.898,2.922,4.983
	c-2.154,1.16-3.218-1.216-4.013-2.691c-0.421-0.78-2.025-0.922-2.842-1.185c0.355,3.02,0.491,5.879,1.628,8.699
	c0.72,1.786,0.719,2.542,2.442,3.284c1.662,0.717,5.228,1.632,4.104,4.228c-2.311-0.923-4.623-1.846-6.934-2.769
	c-1.492-0.596-2.428-4.786-3.039-6.182C26.793,32.682,26.26,43.79,22.418,43.271z"/>
<path fill="#FFFFFF" d="M42.872,44.497c1.171-6.933,2.297-12.646,1.479-19.593c-1.754,1.053-6.525,5.194-8.25,2.319
	c1.637-0.982,3.272-1.965,4.91-2.946c1.002-0.603,2.006-1.204,3.01-1.807c0.813-0.487,2.177,0.391,3.271,0.107
	c1.743-0.45,1.466-1.105,3.196-0.551c0.846,0.272,2.28,0.44,3.004,0.966c1.243,0.399,2.337,3.897,2.922,4.983
	c-2.153,1.159-3.218-1.217-4.013-2.691c-0.42-0.781-2.025-0.923-2.844-1.186c0.355,3.02,0.492,5.88,1.629,8.699
	c0.721,1.787,0.72,2.542,2.442,3.285c1.662,0.716,5.228,1.631,4.104,4.227c-2.313-0.923-4.623-1.846-6.935-2.768
	c-1.491-0.596-2.428-4.787-3.038-6.182C47.247,33.904,46.713,45.016,42.872,44.497z"/>
<path fill="#FFFFFF" d="M7.749,31.029c-1.2,0.996-3.979,4.318-5.705,2.594c1.069-1.068,2.138-2.139,3.207-3.206
	c0.726-0.726,1.451-1.452,2.178-2.179c0.803-0.803,1.869,0.113,2.996-0.226c4.241-1.274,5.509,1.235,7.178,4.573
	c-2.675,1.336-2.378-3.372-5.187-2.593c0.504,2.016,1.008,4.031,1.512,6.049c0.365,1.458,5.23-1.089,5.23,2.249
	c-1.731,0-3.463,0-5.196,0c-1.289,0-1.646-1.676-2.535-1.422c-3.197,0.914,0.696,7.478-3.08,7.646
	C8.148,40.02,7.948,35.523,7.749,31.029z"/>
<g>
	<line fill="#FFFFFF" x1="37.497" y1="27.675" x2="39.996" y2="43.29"/>
	
		<rect x="38.289" y="27.575" transform="matrix(0.9873 -0.1588 0.1588 0.9873 -5.1438 6.604)" fill="#FFFFFF" width="0.91" height="15.815"/>
</g>
<path fill="#FFFFFF" d="M48.936,18.642c0-1.448-1.174-2.622-2.623-2.622s-2.623,1.174-2.623,2.622c0,1.449,1.174,2.623,2.623,2.623
	S48.936,20.091,48.936,18.642z M47.404,20.497c0.003,0.052,0.015,0.105,0.004,0.154c-0.014,0.063-0.027,0.153-0.07,0.178
	c-0.07,0.039-0.161,0.035-0.225-0.055c-0.036-0.053-0.092-0.097-0.146-0.135c-0.028,0.008-0.061,0.013-0.098,0.008
	c-0.205-0.027-0.343-0.151-0.452-0.313c-0.042-0.063-0.072-0.133-0.105-0.2c-0.035,0.067-0.065,0.137-0.107,0.2
	c-0.107,0.161-0.246,0.285-0.451,0.313c-0.037,0.005-0.068,0-0.098-0.008c-0.055,0.038-0.109,0.082-0.146,0.135
	c-0.063,0.09-0.152,0.094-0.224,0.055c-0.043-0.024-0.058-0.114-0.07-0.178c-0.011-0.049,0.001-0.103,0.003-0.154
	c0,0-0.001,0-0.002,0c0.006-0.165-0.005-0.332,0.023-0.493c0.064-0.367,0.439-0.644,0.773-0.595
	c0.053,0.008,0.219,0.072,0.297,0.106c0.08-0.034,0.246-0.099,0.299-0.106c0.332-0.049,0.707,0.228,0.772,0.595
	C47.411,20.165,47.398,20.332,47.404,20.497C47.406,20.497,47.404,20.497,47.404,20.497z"/>
</svg>
