<?xml version="1.0" encoding="utf-8"?>
<!-- Generator: Adobe Illustrator 16.0.0, SVG Export Plug-In . SVG Version: 6.00 Build 0)  -->
<!DOCTYPE svg PUBLIC "-//W3C//DTD SVG 1.1//EN" "http://www.w3.org/Graphics/SVG/1.1/DTD/svg11.dtd">
<svg version="1.1" id="Layer_1" xmlns="http://www.w3.org/2000/svg" xmlns:xlink="http://www.w3.org/1999/xlink" x="0px" y="0px"
	 width="60px" height="60px" viewBox="0 0 60 60" enable-background="new 0 0 60 60" xml:space="preserve">
<g opacity="0.3">
	<path fill="#064E89" d="M15.914,22.361c0,0,0.665,0.416,1.167-0.085c0.5-0.499,1.333-1.751-0.583-2.748
		c-1.914-1.002-3.247-2.917-4.746-1.751L1.793,30.866c-0.054,0.026-0.115,0.046-0.167,0.073c-0.301,0.15-0.012,3.679,0.049,3.816
		c0.095,0.235,1.021,1.889,2.082,5.895c0.709,3.725,3.031,6.604,9.891,6.604c4.607,0,8.142-1.414,10.314-3.973
		c0.009-0.012,0.015-0.016,0.022-0.025c3.431-3.892,1.936-7.877,5.761-7.877s2.327,3.985,5.756,7.877
		c0.011,0.01,0.021,0.016,0.026,0.025c2.171,2.559,5.707,3.973,10.313,3.973c6.862,0,9.184-2.88,9.895-6.604h0.002
		c1.059-4.006,1.984-5.658,2.078-5.895c0.058-0.139,0.353-3.666,0.05-3.816c-0.058-0.025-0.118-0.047-0.175-0.076l-9.955-13.086
		c-1.5-1.166-2.832,0.749-4.75,1.751c-1.914,0.999-1.082,2.249-0.582,2.748c0.498,0.501,1.168,0.085,1.168,0.085
		c1.248-3,2.75-3.668,3.58-2.5c0.119,0.164,3.205,5.448,5.742,9.801c-2.959-0.379-6.043-0.37-7.4-0.37
		c-0.016,0-0.026,0.003-0.041,0.006c-0.135-0.003-0.268-0.006-0.404-0.006c-1.693,0-3.152,0.109-4.417,0.3
		c-0.015,0-0.026,0-0.039,0.001c-0.032,0.003-0.063,0.012-0.089,0.016c-0.928,0.146-1.744,0.336-2.463,0.56
		c-2.506,0.698-4.895,1.621-8.295,1.621c-3.401,0-5.789-0.923-8.292-1.621c-0.72-0.224-1.541-0.414-2.46-0.56
		c-0.034-0.004-0.062-0.01-0.092-0.016c-0.015-0.001-0.026-0.001-0.042-0.001c-1.259-0.195-2.72-0.3-4.412-0.3
		c-0.139,0-0.271,0.003-0.407,0.006c-0.015-0.003-0.028-0.006-0.041-0.006c-1.357,0-4.444-0.009-7.408,0.372
		c2.538-4.352,5.626-9.641,5.742-9.803C13.164,18.693,14.665,19.361,15.914,22.361z M45.048,30.491c8.603,0,9.775,2.567,9.775,6.586
		c0,4.864-0.896,8.979-8.982,8.979c-8.603,0-11.573-5.014-11.573-10.178C34.268,32.713,37.188,30.491,45.048,30.491z M14.446,30.491
		c7.858,0,10.778,2.222,10.778,5.389c0,5.164-2.971,10.179-11.577,10.179c-8.08,0-8.979-4.115-8.979-8.98
		C4.669,33.059,5.841,30.491,14.446,30.491z"/>
</g>
</svg>
