<?xml version="1.0" encoding="utf-8"?>
<!-- Generator: Adobe Illustrator 16.0.0, SVG Export Plug-In . SVG Version: 6.00 Build 0)  -->
<!DOCTYPE svg PUBLIC "-//W3C//DTD SVG 1.1//EN" "http://www.w3.org/Graphics/SVG/1.1/DTD/svg11.dtd">
<svg version="1.1" id="Layer_1" xmlns="http://www.w3.org/2000/svg" xmlns:xlink="http://www.w3.org/1999/xlink" x="0px" y="0px"
	 width="400px" height="173.667px" viewBox="0 44.833 400 173.667" enable-background="new 0 44.833 400 173.667"
	 xml:space="preserve">
<g>
	<path fill="#FFFFFF" d="M193.158,105.746c3.375,0,6.141-1.477,7.992-3.117l-2.484-2.625c-1.359,1.266-3.211,2.32-4.992,2.32
		c-2.906,0-4.781-2.133-4.781-4.688s1.828-4.688,4.664-4.688c1.383,0,3.234,0.68,4.664,1.852l2.461-2.672
		c-1.969-1.547-4.828-2.625-7.641-2.625c-4.992,0-8.414,3.727-8.414,8.109C184.627,102.09,188.025,105.746,193.158,105.746z"/>
	<polygon fill="#FFFFFF" points="217.134,102.934 206.774,102.934 206.774,98.457 212.657,98.457 212.657,96.113 206.774,96.113 
		206.774,92.316 216.571,92.316 216.571,89.973 204.149,89.973 204.149,105.277 217.134,105.277 	"/>
	<polygon fill="#FFFFFF" points="223.508,94.66 223.531,94.66 232.367,105.277 234.688,105.277 234.688,89.973 232.063,89.973 
		232.063,100.59 232.039,100.59 223.203,89.973 220.883,89.973 220.883,105.277 223.508,105.277 	"/>
	<polygon fill="#FFFFFF" points="244.061,105.277 246.686,105.277 246.686,92.316 252.686,92.316 252.686,89.973 238.037,89.973 
		238.037,92.316 244.061,92.316 	"/>
	<path fill="#FFFFFF" d="M258.662,99.395h5.438l3.281,5.883h3.023l-3.656-6.234c2.016-0.75,3.375-2.32,3.375-4.383
		c0-1.172-0.445-2.25-1.219-3.07c-0.984-1.055-2.391-1.617-4.43-1.617h-8.438v15.305h2.625V99.395z M258.662,92.316h5.813
		c0.82,0,1.664,0.07,2.391,0.82c0.398,0.422,0.633,0.938,0.633,1.523c0,1.313-1.172,2.391-2.555,2.391h-6.281V92.316z"/>
	<path fill="#FFFFFF" d="M281.629,105.746c4.828,0,8.672-3.609,8.672-8.156c0-4.477-3.844-8.086-8.672-8.086
		s-8.602,3.609-8.602,8.086C273.027,102.137,276.801,105.746,281.629,105.746z M281.629,91.848c3.305,0,5.906,2.578,5.906,5.742
		c0,3.188-2.602,5.813-5.906,5.813c-3.281,0-5.836-2.625-5.836-5.813C275.793,94.426,278.348,91.848,281.629,91.848z"/>
	<path fill="#FFFFFF" d="M312.284,103.402c1.453-1.406,2.25-3.492,2.25-5.789c0-2.227-0.727-4.195-2.086-5.602
		c-1.313-1.266-2.859-2.039-5.625-2.039h-7.336v15.305h7.336C309.589,105.277,310.972,104.574,312.284,103.402z M302.112,102.934
		V92.316h4.594c1.922,0,2.742,0.492,3.609,1.289c0.961,0.984,1.477,2.414,1.477,4.008c0,1.641-0.586,3.141-1.57,4.125
		c-0.914,0.75-1.57,1.195-3.516,1.195H302.112z"/>
	<polygon fill="#FFFFFF" points="331.572,102.934 321.213,102.934 321.213,98.457 327.096,98.457 327.096,96.113 321.213,96.113 
		321.213,92.316 331.01,92.316 331.01,89.973 318.588,89.973 318.588,105.277 331.572,105.277 	"/>
	<path fill="#FFFFFF" d="M188.963,124.418h6.844l0.984,2.344h4.477l-7.102-15.305h-3.398l-7.102,15.305h4.336L188.963,124.418z
		 M192.314,116.332h0.141l2.039,4.898h-4.219L192.314,116.332z"/>
	<polygon fill="#FFFFFF" points="207.994,126.762 210.619,126.762 210.619,113.801 216.619,113.801 216.619,111.457 
		201.971,111.457 201.971,113.801 207.994,113.801 	"/>
	<polygon fill="#FFFFFF" points="232.953,124.418 222.594,124.418 222.594,119.941 228.477,119.941 228.477,117.598 
		222.594,117.598 222.594,113.801 232.391,113.801 232.391,111.457 219.969,111.457 219.969,126.762 232.953,126.762 	"/>
	<polygon fill="#FFFFFF" points="239.328,116.145 239.352,116.145 248.188,126.762 250.508,126.762 250.508,111.457 
		247.883,111.457 247.883,122.074 247.859,122.074 239.023,111.457 236.703,111.457 236.703,126.762 239.328,126.762 	"/>
	<path fill="#FFFFFF" d="M262.811,127.23c3.328,0,5.906-1.547,7.547-3.188l-1.758-1.734c-1.313,1.406-3.352,2.578-5.742,2.578
		c-3.422,0-5.648-2.578-5.648-5.766c0-3.164,2.18-5.789,5.531-5.789c1.875,0,3.984,0.82,5.344,2.109l1.781-1.758
		c-1.711-1.594-4.383-2.695-7.172-2.695c-4.898,0-8.25,3.68-8.25,8.109C254.443,123.598,257.771,127.23,262.811,127.23z"/>
	<rect x="273.873" y="111.457" fill="#FFFFFF" width="2.625" height="15.305"/>
	<path fill="#FFFFFF" d="M280.435,119.074c0,4.547,3.773,8.156,8.602,8.156s8.672-3.609,8.672-8.156
		c0-4.477-3.844-8.086-8.672-8.086S280.435,114.598,280.435,119.074z M294.942,119.074c0,3.188-2.602,5.813-5.906,5.813
		c-3.281,0-5.836-2.625-5.836-5.813c0-3.164,2.555-5.742,5.836-5.742C292.341,113.332,294.942,115.91,294.942,119.074z"/>
	<polygon fill="#FFFFFF" points="287.114,109.652 289.435,109.652 292.646,106.605 289.458,106.605 	"/>
	<polygon fill="#FFFFFF" points="315.426,111.457 312.801,111.457 312.801,122.074 312.777,122.074 303.941,111.457 
		301.621,111.457 301.621,126.762 304.246,126.762 304.246,116.145 304.27,116.145 313.105,126.762 315.426,126.762 	"/>
	<polygon fill="#FFFFFF" points="325.877,111.457 322.549,111.457 328.83,119.707 328.83,126.762 331.455,126.762 331.455,119.707 
		337.736,111.457 334.643,111.457 330.26,117.363 	"/>
	<path fill="#FFFFFF" d="M192.9,132.942h-7.055v15.305h7.055c3.023,0,4.945-0.867,6.281-2.18c1.406-1.383,2.156-3.352,2.156-5.484
		c0-2.086-0.727-3.961-2.039-5.344C197.869,133.739,195.76,132.942,192.9,132.942z M195.854,143.794
		c-0.68,0.656-1.477,1.008-3.047,1.008h-2.859v-8.414h2.859c1.688,0,2.484,0.422,3.164,1.148c0.727,0.773,1.125,1.758,1.125,3.094
		C197.096,142.06,196.65,143.021,195.854,143.794z"/>
	<polygon fill="#FFFFFF" points="217.438,135.286 217.438,132.942 205.017,132.942 205.017,148.247 218.001,148.247 
		218.001,145.903 207.642,145.903 207.642,141.427 213.524,141.427 213.524,139.083 207.642,139.083 207.642,135.286 	"/>
	<path fill="#FFFFFF" d="M235.227,143.583c0-4.266-4.313-4.547-7.055-4.734c-2.32-0.164-4.594-0.234-4.594-1.898
		c0-1.617,1.617-2.203,3.445-2.203c2.813,0,4.711,1.008,5.555,1.781l1.594-1.828c-1.219-0.961-3.82-2.227-7.055-2.227
		c-2.813,0-6.164,1.078-6.164,4.711c0,3.703,3.844,3.984,7.219,4.219c2.672,0.211,4.43,0.609,4.43,2.531
		c0,1.734-1.805,2.508-4.078,2.508c-3.422,0-5.578-1.641-6.82-2.766l-1.594,1.828c1.711,1.547,4.336,3.211,8.367,3.211
		C232.133,148.716,235.227,147.286,235.227,143.583z"/>
	<path fill="#FFFFFF" d="M244.015,132.942l-7.102,15.305h2.742l1.828-4.125h7.289l1.852,4.125h2.883l-7.102-15.305H244.015z
		 M242.421,142.013l2.648-5.93h0.141l2.625,5.93H242.421z"/>
	<path fill="#FFFFFF" d="M271.084,148.247l-3.656-6.234c2.016-0.75,3.375-2.32,3.375-4.383c0-1.172-0.445-2.25-1.219-3.07
		c-0.984-1.055-2.391-1.617-4.43-1.617h-8.438v15.305h2.625v-5.883h5.438l3.281,5.883H271.084z M265.623,140.021h-6.281v-4.734
		h5.813c0.82,0,1.664,0.07,2.391,0.82c0.398,0.422,0.633,0.938,0.633,1.523C268.178,138.942,267.006,140.021,265.623,140.021z"/>
	<path fill="#FFFFFF" d="M289.153,137.63c0-1.172-0.445-2.25-1.219-3.07c-0.984-1.055-2.391-1.617-4.43-1.617h-8.438v15.305h2.625
		v-5.883h5.438l3.281,5.883h3.023l-3.656-6.234C287.794,141.263,289.153,139.692,289.153,137.63z M283.974,140.021h-6.281v-4.734
		h5.813c0.82,0,1.664,0.07,2.391,0.82c0.398,0.422,0.633,0.938,0.633,1.523C286.528,138.942,285.356,140.021,283.974,140.021z"/>
	<path fill="#FFFFFF" d="M300.66,132.474c-4.828,0-8.602,3.609-8.602,8.086c0,4.547,3.773,8.156,8.602,8.156
		s8.672-3.609,8.672-8.156C309.332,136.083,305.488,132.474,300.66,132.474z M300.66,146.372c-3.281,0-5.836-2.625-5.836-5.813
		c0-3.164,2.555-5.742,5.836-5.742c3.305,0,5.906,2.578,5.906,5.742C306.566,143.747,303.965,146.372,300.66,146.372z"/>
	<polygon fill="#FFFFFF" points="315.869,132.942 313.244,132.942 313.244,148.247 325.268,148.247 325.268,145.903 
		315.869,145.903 	"/>
	<polygon fill="#FFFFFF" points="331.033,132.942 328.408,132.942 328.408,148.247 340.432,148.247 340.432,145.903 
		331.033,145.903 	"/>
	<path fill="#FFFFFF" d="M350.603,132.474c-4.828,0-8.602,3.609-8.602,8.086c0,4.547,3.773,8.156,8.602,8.156
		s8.672-3.609,8.672-8.156C359.274,136.083,355.431,132.474,350.603,132.474z M350.603,146.372c-3.281,0-5.836-2.625-5.836-5.813
		c0-3.164,2.555-5.742,5.836-5.742c3.305,0,5.906,2.578,5.906,5.742C356.509,143.747,353.907,146.372,350.603,146.372z"/>
	<polygon fill="#FFFFFF" points="192.525,164.668 192.385,164.668 188.166,154.426 183.596,154.426 190.697,169.73 194.096,169.73 
		201.197,154.426 196.768,154.426 	"/>
	<rect x="203.774" y="154.426" fill="#FFFFFF" width="2.625" height="15.305"/>
	<path fill="#FFFFFF" d="M218.656,160.332c-2.32-0.164-4.594-0.234-4.594-1.898c0-1.617,1.617-2.203,3.445-2.203
		c2.813,0,4.711,1.008,5.555,1.781l1.594-1.828c-1.219-0.961-3.82-2.227-7.055-2.227c-2.813,0-6.164,1.078-6.164,4.711
		c0,3.703,3.844,3.984,7.219,4.219c2.672,0.211,4.43,0.609,4.43,2.531c0,1.734-1.805,2.508-4.078,2.508
		c-3.422,0-5.578-1.641-6.82-2.766l-1.594,1.828c1.711,1.547,4.336,3.211,8.367,3.211c3.656,0,6.75-1.43,6.75-5.133
		C225.711,160.801,221.398,160.52,218.656,160.332z"/>
	<path fill="#FFFFFF" d="M240.124,164.293c0,2.297-1.828,3.563-4.172,3.563c-2.32,0-4.148-1.266-4.148-3.563v-9.867h-2.625v9.867
		c0,3.773,2.906,5.906,6.773,5.906c3.891,0,6.797-2.133,6.797-5.906v-9.867h-2.625V164.293z"/>
	<path fill="#FFFFFF" d="M252.451,154.426l-7.102,15.305h2.742l1.828-4.125h7.289l1.852,4.125h2.883l-7.102-15.305H252.451z
		 M250.857,163.496l2.648-5.93h0.141l2.625,5.93H250.857z"/>
	<polygon fill="#FFFFFF" points="267.779,154.426 265.154,154.426 265.154,169.73 277.178,169.73 277.178,167.387 267.779,167.387 	
		"/>
</g>
<g>
	<path fill="#FFFFFF" d="M70.459,130.889c3.98-49.466,64.704-51.572,64.704-51.572c-69.809-9.737-97.52,51.593-97.52,51.593
		s27.712,61.398,97.521,51.662C135.163,182.572,74.439,180.355,70.459,130.889z"/>
	<path fill="#FFFFFF" d="M149.541,129.914c-2.909-36.141-47.272-37.679-47.272-37.679c51.001-7.113,71.247,37.695,71.247,37.695
		s-20.246,44.857-71.247,37.744C102.269,167.673,146.632,166.055,149.541,129.914z"/>
	<circle fill="#FFFFFF" cx="109.625" cy="131.096" r="21.624"/>
</g>
</svg>
