<?xml version="1.0" standalone="no"?>
<!DOCTYPE svg PUBLIC "-//W3C//DTD SVG 20010904//EN"
 "http://www.w3.org/TR/2001/REC-SVG-20010904/DTD/svg10.dtd">
<svg version="1.0" xmlns="http://www.w3.org/2000/svg"
 width="256.000000pt" height="256.000000pt" viewBox="0 0 256.000000 256.000000"
 preserveAspectRatio="xMidYMid meet">
<metadata>
Created by potrace 1.11, written by Peter Selinger 2001-2013
</metadata>
<g transform="translate(0.000000,256.000000) scale(0.100000,-0.100000)"
fill="#000000" stroke="none">
<path d="M1527 2224 c-1 -1 -42 -4 -92 -8 -92 -6 -141 -12 -185 -22 -14 -3
-38 -8 -53 -11 -46 -7 -182 -50 -216 -67 -17 -9 -31 -14 -31 -11 0 10 -181
-86 -264 -139 -213 -138 -412 -346 -557 -583 -32 -53 -59 -101 -59 -106 0 -18
111 -197 172 -278 68 -90 211 -240 298 -311 178 -147 398 -258 619 -313 98
-24 120 -28 226 -41 66 -8 307 -8 369 0 46 6 59 16 23 17 -95 5 -296 50 -422
95 -386 139 -635 411 -682 749 -31 214 72 474 256 654 187 181 519 319 834
346 52 4 59 15 11 16 -21 1 -61 3 -89 5 -95 6 -156 10 -158 8z"/>
<path d="M1347 1984 c-1 -2 -19 -4 -40 -6 -46 -3 -49 -18 -4 -19 123 -3 347
-79 473 -161 169 -111 281 -285 300 -467 8 -79 -18 -190 -66 -288 -69 -140
-208 -263 -376 -333 -96 -40 -242 -78 -329 -87 -56 -6 -64 -8 -40 -14 57 -12
289 -8 370 7 283 52 534 204 729 442 65 81 146 209 146 234 0 24 -71 138 -138
223 -209 261 -483 421 -792 460 -57 8 -228 14 -233 9z"/>
<path d="M1253 1646 c-169 -55 -276 -201 -275 -376 0 -165 106 -316 257 -367
58 -19 173 -25 225 -11 146 40 262 163 287 304 33 181 -49 343 -214 426 -52
25 -77 31 -150 34 -57 3 -103 -1 -130 -10z"/>
</g>
</svg>
